# xmcd
#
# Track frame offsets: 
#        150
#        16342
#        22758
#        34242
#        38054
#        56246
#        58798
#
# Disc length: 1018 seconds
#
# Revision: 0
# Processed by: cddbd v1.5.2PL0 Copyright (c) Steve Scherf et al.
# Submitted via: ExactAudioCopy v0.99pb5
#
DISCID=5303f807
DTITLE=Highlands Country - July 24, 2011
DYEAR=2011
DGENRE=Country
TTITLE0=Days Go By
TTITLE1=Red Team Promo
TTITLE2=Leaning On The Everlasting Arms
TTITLE3=Welcome
TTITLE4=Drive
TTITLE5=Talking
TTITLE6=You're Gonna Miss This
EXTD=
EXTT0=
EXTT1=
EXTT2=
EXTT3=
EXTT4=
EXTT5=
EXTT6=
PLAYORDER=
